<svg xmlns="http://www.w3.org/2000/svg" viewBox="0 0 100 100">
  <defs>
    <linearGradient id="coral" x1="0%" y1="0%" x2="100%" y2="100%">
      <stop offset="0%" stop-color="#E8636F"/>
      <stop offset="100%" stop-color="#D4525E"/>
    </linearGradient>
    <linearGradient id="peach" x1="0%" y1="0%" x2="100%" y2="100%">
      <stop offset="0%" stop-color="#F2A68A"/>
      <stop offset="100%" stop-color="#FBBF8A"/>
    </linearGradient>
  </defs>
  <!-- Left speech bubble (coral) -->
  <circle cx="38" cy="38" r="28" fill="url(#coral)"/>
  <path d="M20 55 Q15 72 10 78 Q25 70 32 62" fill="url(#coral)"/>
  <!-- Right speech bubble (peach) -->
  <circle cx="62" cy="38" r="28" fill="url(#peach)"/>
  <path d="M80 55 Q85 72 90 78 Q75 70 68 62" fill="url(#peach)"/>
  <!-- Heart in overlap -->
  <path d="M50 58 l-1.2-1.1C44 53 41 50 41 47c0-2.2 1.7-3.8 3.8-3.8 1.1 0 2.2.5 3 1.3.8-.8 1.9-1.3 3-1.3 2.1 0 3.8 1.6 3.8 3.8 0 3-3 5.9-6.8 9l-1.2 1.1z" fill="#E8636F" opacity="0.6"/>
</svg>
